<?xml version="1.0" encoding="UTF-8" standalone="no"?>
<!DOCTYPE svg PUBLIC "-//W3C//DTD SVG 1.1//EN" "http://www.w3.org/Graphics/SVG/1.1/DTD/svg11.dtd">
<svg width="100%" height="100%" viewBox="0 0 1000 160" version="1.1" xmlns="http://www.w3.org/2000/svg" xmlns:xlink="http://www.w3.org/1999/xlink" xml:space="preserve" style="fill-rule:evenodd;clip-rule:evenodd;stroke-linejoin:round;stroke-miterlimit:1.41421;">
    <g id="Artboard1" transform="matrix(1,0,0,1,0,-420.331)">
        <rect x="0" y="420.331" width="1000" height="159.337" style="fill:none;"/>
        <g transform="matrix(4.01188,0,0,4.01188,396.388,-3878.33)">
            <path d="M59.46,1111.18C59.391,1111.16 59.273,1111.14 59.196,1111.13C58.997,1111.1 58.534,1110.94 58.279,1110.81C57.794,1110.57 57.315,1110.19 56.923,1109.74C56.79,1109.58 56.572,1109.24 56.46,1109.01C56.159,1108.37 56.056,1107.93 56.056,1107.27C56.056,1106.81 56.096,1106.53 56.218,1106.14C56.423,1105.5 56.699,1105.04 57.187,1104.53C57.408,1104.3 57.85,1103.94 57.906,1103.94C57.918,1103.94 57.971,1103.9 58.024,1103.86C58.12,1103.8 58.185,1103.76 58.574,1103.59C58.667,1103.54 58.851,1103.48 58.978,1103.46C59.105,1103.43 59.261,1103.39 59.32,1103.37C59.379,1103.36 59.631,1103.34 59.876,1103.33C60.318,1103.31 60.582,1103.34 60.983,1103.45C61.648,1103.63 62.183,1103.94 62.718,1104.46C63.234,1104.97 63.526,1105.42 63.728,1106.04C63.887,1106.52 63.921,1106.74 63.921,1107.26C63.921,1107.76 63.896,1107.92 63.744,1108.41C63.56,1109.01 63.196,1109.59 62.724,1110.03C62.606,1110.14 62.494,1110.25 62.475,1110.27C62.416,1110.33 62.08,1110.57 61.95,1110.64C61.704,1110.77 61.381,1110.93 61.356,1110.93C61.344,1110.93 61.291,1110.95 61.238,1110.98C61.117,1111.03 60.856,1111.1 60.626,1111.15C60.414,1111.2 59.628,1111.22 59.46,1111.18ZM60.455,1109.07C60.871,1108.95 61.129,1108.81 61.406,1108.52C62.009,1107.88 62.133,1107.05 61.742,1106.25C61.596,1105.96 61.185,1105.55 60.893,1105.4C60.125,1105.03 59.304,1105.13 58.692,1105.68C58.033,1106.27 57.837,1107.15 58.185,1107.96C58.356,1108.36 58.782,1108.79 59.186,1108.96C59.587,1109.13 60.072,1109.17 60.455,1109.07ZM59.84,1071.48C59.883,1071.48 59.92,1071.51 59.932,1071.54C59.954,1071.6 60.119,1071.96 60.377,1072.49C60.473,1072.7 60.573,1072.92 60.595,1072.98C60.616,1073.04 60.654,1073.11 60.678,1073.13C60.7,1073.16 60.719,1073.2 60.719,1073.22C60.719,1073.24 60.759,1073.34 60.809,1073.43C60.902,1073.62 61.139,1074.12 61.331,1074.53C61.39,1074.66 61.477,1074.85 61.527,1074.95C61.574,1075.05 61.664,1075.24 61.723,1075.37C61.782,1075.5 61.903,1075.76 61.993,1075.94C62.23,1076.45 62.32,1076.64 62.407,1076.83C62.45,1076.92 62.572,1077.18 62.677,1077.4C62.898,1077.87 63.029,1078.15 63.131,1078.37C63.243,1078.62 63.371,1078.88 63.38,1078.88C63.383,1078.88 63.414,1078.83 63.445,1078.77C63.582,1078.51 63.681,1078.34 63.722,1078.29C63.747,1078.26 63.765,1078.23 63.765,1078.22C63.765,1078.21 63.849,1078.06 63.955,1077.88C64.126,1077.59 64.257,1077.37 64.378,1077.14C64.403,1077.1 64.446,1077.03 64.474,1076.98C64.502,1076.94 64.577,1076.82 64.636,1076.72C64.695,1076.62 64.76,1076.51 64.782,1076.47C64.804,1076.44 64.835,1076.38 64.85,1076.35C64.869,1076.31 64.925,1076.22 64.978,1076.13C65.027,1076.05 65.083,1075.95 65.102,1075.91C65.192,1075.74 65.254,1075.66 65.313,1075.65C65.373,1075.65 65.596,1075.75 66.377,1076.15C66.504,1076.21 66.793,1076.36 67.014,1076.46C67.238,1076.58 67.545,1076.73 67.698,1076.81L72.796,1079.36C74.126,1080.02 74.583,1080.25 74.583,1080.28C74.583,1080.29 74.546,1080.37 74.503,1080.47C74.459,1080.56 74.403,1080.68 74.378,1080.73C74.356,1080.78 74.254,1081.01 74.148,1081.23C73.946,1081.66 73.918,1081.72 73.797,1081.99C73.753,1082.08 73.654,1082.3 73.573,1082.47C73.318,1083.01 73.253,1083.15 73.181,1083.31C73.144,1083.4 73.048,1083.61 72.967,1083.78C72.886,1083.95 72.783,1084.17 72.74,1084.26C72.451,1084.9 72.115,1085.62 72.047,1085.76C72.022,1085.8 72.003,1085.85 72.003,1085.86C72.003,1085.87 72.121,1085.88 72.267,1085.88C72.414,1085.88 72.634,1085.89 72.759,1085.92C72.883,1085.94 73.082,1085.98 73.2,1086C73.393,1086.04 73.822,1086.17 74.148,1086.29C74.518,1086.43 75.075,1086.74 75.469,1087.04C75.892,1087.36 76.822,1088.33 76.822,1088.45C76.822,1088.47 76.84,1088.5 76.865,1088.52C76.89,1088.54 76.934,1088.6 76.961,1088.65C76.989,1088.71 77.036,1088.8 77.07,1088.85C77.21,1089.07 77.474,1089.63 77.555,1089.89C77.804,1090.66 77.832,1090.87 77.832,1091.95C77.832,1092.91 77.788,1093.31 77.645,1093.71C77.624,1093.77 77.589,1093.88 77.571,1093.94C77.496,1094.19 77.21,1094.81 77.07,1095.03C77.036,1095.08 76.999,1095.15 76.986,1095.17C76.909,1095.34 76.595,1095.77 76.374,1096.01C75.973,1096.44 75.308,1097.03 75.224,1097.04C75.211,1097.04 75.146,1097.07 75.084,1097.12C74.944,1097.23 74.904,1097.25 74.608,1097.41C74.478,1097.48 74.344,1097.54 74.313,1097.56C74.282,1097.58 74.195,1097.62 74.117,1097.64C74.039,1097.67 73.952,1097.71 73.924,1097.72C73.893,1097.74 73.85,1097.75 73.822,1097.75C73.797,1097.75 73.732,1097.77 73.676,1097.8C73.324,1097.94 72.516,1098.09 72.075,1098.09C71.913,1098.09 71.866,1098.13 71.941,1098.2C71.957,1098.22 72.062,1098.42 72.177,1098.64C72.292,1098.86 72.454,1099.17 72.535,1099.32C72.613,1099.48 72.759,1099.76 72.855,1099.94C72.951,1100.13 73.045,1100.31 73.06,1100.33C73.076,1100.36 73.144,1100.49 73.212,1100.63C73.278,1100.76 73.411,1101.02 73.505,1101.2C73.601,1101.38 73.747,1101.67 73.834,1101.85C73.924,1102.02 74.008,1102.17 74.024,1102.18C74.042,1102.19 74.055,1102.23 74.055,1102.27C74.055,1102.33 74.021,1102.37 73.893,1102.43C73.738,1102.51 73.641,1102.56 73.169,1102.82C73.066,1102.87 72.871,1102.98 72.734,1103.06C72.597,1103.13 72.423,1103.22 72.345,1103.26C72.267,1103.31 72.115,1103.39 72.003,1103.45C71.891,1103.51 71.711,1103.61 71.599,1103.67C71.487,1103.73 71.369,1103.8 71.335,1103.81C71.301,1103.83 71.189,1103.89 71.086,1103.95C70.984,1104.01 70.869,1104.07 70.831,1104.09C70.791,1104.11 70.729,1104.14 70.691,1104.15C70.651,1104.17 70.551,1104.23 70.464,1104.28C70.381,1104.33 70.269,1104.4 70.216,1104.42C70.166,1104.45 70.073,1104.5 70.014,1104.53C69.955,1104.57 69.771,1104.67 69.61,1104.75C69.448,1104.84 69.255,1104.94 69.184,1104.98C68.851,1105.17 68.767,1105.21 68.484,1105.36C68.319,1105.45 68.139,1105.55 68.08,1105.58C68.024,1105.62 67.909,1105.68 67.822,1105.73C67.738,1105.77 67.605,1105.84 67.527,1105.88C67.449,1105.93 67.275,1106.02 67.138,1106.1C67.001,1106.17 66.821,1106.27 66.734,1106.32C66.65,1106.36 66.467,1106.46 66.33,1106.53C66.193,1106.61 66.032,1106.69 65.972,1106.73C65.913,1106.77 65.795,1106.83 65.708,1106.88C65.624,1106.92 65.463,1107.01 65.351,1107.07C65.121,1107.19 65.13,1107.19 64.987,1106.89C64.944,1106.8 64.819,1106.54 64.713,1106.32C64.524,1105.92 64.325,1105.5 64.132,1105.09C64.014,1104.84 64.008,1104.82 63.911,1104.63C63.868,1104.55 63.781,1104.37 63.719,1104.23C63.523,1103.81 62.991,1102.7 62.973,1102.67C62.973,1102.67 62.901,1102.68 62.814,1102.71C62.096,1102.91 60.787,1103.07 59.848,1103.07C59.395,1103.07 58.344,1103 58.03,1102.94C57.912,1102.92 57.716,1102.89 57.595,1102.88C57.318,1102.83 56.951,1102.76 56.771,1102.71C56.438,1102.61 56.451,1102.61 56.354,1102.81C56.267,1102.99 56.23,1103.07 56.131,1103.3C56.103,1103.37 56.016,1103.56 55.941,1103.72C55.789,1104.04 55.695,1104.25 55.59,1104.48C55.552,1104.57 55.471,1104.74 55.412,1104.87C55.353,1105 55.288,1105.15 55.263,1105.2C55.241,1105.25 55.158,1105.43 55.08,1105.59C55.002,1105.76 54.937,1105.9 54.937,1105.91C54.937,1105.93 54.57,1106.72 54.399,1107.08C54.275,1107.33 54.231,1107.34 53.911,1107.16C53.784,1107.1 53.51,1106.96 53.305,1106.85L50.196,1105.3C50.059,1105.23 49.739,1105.07 49.481,1104.94C49.226,1104.81 48.909,1104.66 48.782,1104.59C48.658,1104.53 48.392,1104.39 48.18,1104.29L48.14,1104.27C47.928,1104.16 47.662,1104.03 47.538,1103.97C47.302,1103.85 46.836,1103.62 46.357,1103.38C45.9,1103.15 45.449,1102.92 45.421,1102.89C45.39,1102.86 45.434,1102.74 45.617,1102.32C45.689,1102.16 45.735,1102.05 45.875,1101.7C45.956,1101.5 46.034,1101.31 46.049,1101.27C46.108,1101.12 46.136,1101.06 46.195,1100.92C46.23,1100.85 46.341,1100.57 46.45,1100.32C46.556,1100.06 46.655,1099.83 46.671,1099.8C46.686,1099.77 46.699,1099.73 46.699,1099.71C46.699,1099.69 46.739,1099.59 46.786,1099.49C46.836,1099.38 46.901,1099.23 46.932,1099.15C46.96,1099.07 47.007,1098.96 47.035,1098.9C47.084,1098.79 47.147,1098.64 47.212,1098.48C47.234,1098.43 47.265,1098.35 47.283,1098.31C47.361,1098.12 47.383,1098.13 46.938,1098.12C45.86,1098.07 44.778,1097.77 43.917,1097.27C43.814,1097.21 43.708,1097.15 43.684,1097.14C43.659,1097.13 43.593,1097.09 43.541,1097.05C43.488,1097.01 43.435,1096.97 43.422,1096.97C43.398,1096.97 43.115,1096.76 42.863,1096.56C42.599,1096.34 42.291,1096.04 42.104,1095.82C42.008,1095.7 41.89,1095.56 41.846,1095.51C41.775,1095.43 41.61,1095.18 41.377,1094.8C41.237,1094.58 41.044,1094.15 40.939,1093.84C40.737,1093.23 40.715,1093.05 40.715,1092.14C40.715,1091.24 40.743,1091.06 40.963,1090.41C41.119,1089.98 41.551,1089.18 41.837,1088.81C42.431,1088.04 42.81,1087.67 43.637,1087.04C43.83,1086.89 44.321,1086.6 44.678,1086.43C44.859,1086.35 45.03,1086.26 45.058,1086.25C45.089,1086.23 45.132,1086.22 45.157,1086.22C45.182,1086.22 45.241,1086.2 45.291,1086.17C45.459,1086.09 45.539,1086.07 46.198,1085.92C46.304,1085.89 46.646,1085.86 46.951,1085.86C47.255,1085.85 47.507,1085.83 47.507,1085.83C47.507,1085.81 47.457,1085.7 47.339,1085.43C47.296,1085.34 47.258,1085.25 47.258,1085.24C47.258,1085.23 47.237,1085.17 47.209,1085.11C47.181,1085.04 47.147,1084.96 47.134,1084.93C47.119,1084.89 47.081,1084.8 47.047,1084.73C47.013,1084.65 46.907,1084.39 46.808,1084.15C46.711,1083.91 46.612,1083.68 46.59,1083.62C46.568,1083.57 46.528,1083.47 46.5,1083.4C46.472,1083.34 46.428,1083.24 46.404,1083.19C46.379,1083.14 46.357,1083.09 46.357,1083.08C46.357,1083.06 46.317,1082.96 46.27,1082.86C46.22,1082.75 46.155,1082.6 46.124,1082.52C46.043,1082.31 45.975,1082.15 45.878,1081.92C45.829,1081.8 45.462,1080.92 45.421,1080.82C45.406,1080.78 45.381,1080.72 45.362,1080.68C45.244,1080.4 45.241,1080.38 45.288,1080.34C45.312,1080.32 45.477,1080.23 45.651,1080.14C45.825,1080.05 46.096,1079.91 46.248,1079.83C46.404,1079.75 46.627,1079.63 46.746,1079.58C46.867,1079.52 46.985,1079.46 47.01,1079.44C47.035,1079.43 47.196,1079.34 47.367,1079.25C47.538,1079.16 47.806,1079.02 47.958,1078.94C48.113,1078.86 48.35,1078.74 48.486,1078.66C48.887,1078.46 49.764,1078 50.15,1077.8C50.345,1077.7 50.647,1077.54 50.818,1077.45C50.989,1077.36 51.368,1077.17 51.657,1077.02C51.949,1076.87 52.326,1076.67 52.497,1076.58C52.795,1076.42 53.401,1076.11 53.979,1075.81C54.129,1075.74 54.259,1075.68 54.275,1075.69C54.303,1075.71 54.576,1076.25 54.906,1076.94C55.03,1077.2 55.161,1077.47 55.201,1077.55C55.241,1077.62 55.304,1077.75 55.341,1077.83C55.695,1078.55 55.813,1078.8 55.838,1078.87C55.854,1078.91 55.879,1078.94 55.894,1078.94C55.91,1078.94 56.006,1078.78 56.109,1078.58C56.491,1077.83 57.072,1076.7 57.588,1075.71C57.691,1075.52 57.822,1075.26 57.881,1075.14C57.94,1075.02 58.002,1074.89 58.021,1074.86C58.042,1074.82 58.142,1074.63 58.241,1074.44C59.056,1072.87 59.18,1072.62 59.221,1072.56C59.239,1072.52 59.311,1072.38 59.379,1072.25C59.721,1071.56 59.765,1071.48 59.839,1071.48L59.84,1071.48ZM49.528,1085.36C49.528,1085.37 49.559,1085.45 49.593,1085.53C49.674,1085.7 49.665,1085.68 50.056,1086.62C50.23,1087.04 50.414,1087.47 50.463,1087.58C50.513,1087.69 50.554,1087.78 50.554,1087.79C50.554,1087.81 50.585,1087.88 50.619,1087.95C50.759,1088.24 50.725,1088.77 50.547,1089.17C50.423,1089.45 50.171,1089.7 50.01,1089.7C49.966,1089.7 49.745,1089.55 49.45,1089.31C49.186,1089.1 48.676,1088.78 48.269,1088.56C47.516,1088.16 46.976,1088.06 46.295,1088.19C45.981,1088.25 45.748,1088.31 45.717,1088.34C45.704,1088.35 45.676,1088.36 45.651,1088.36C45.527,1088.36 44.98,1088.67 44.669,1088.92C44.209,1089.28 43.792,1089.83 43.584,1090.33C43.55,1090.42 43.509,1090.52 43.494,1090.56C43.385,1090.79 43.279,1091.4 43.279,1091.78C43.279,1092.39 43.385,1092.83 43.662,1093.4C43.851,1093.79 44.029,1094.03 44.346,1094.36C44.865,1094.88 45.502,1095.23 46.217,1095.39C46.469,1095.45 47.461,1095.45 47.694,1095.39C48.222,1095.27 48.651,1095.08 49.061,1094.78C49.5,1094.47 49.957,1093.96 49.991,1093.75C50.007,1093.65 50.031,1093.63 50.181,1093.55C50.392,1093.43 50.516,1093.44 50.706,1093.61C50.989,1093.85 51.095,1094.12 51.095,1094.61C51.091,1095.05 51.054,1095.19 50.737,1095.91C50.703,1095.98 50.678,1096.05 50.678,1096.06C50.678,1096.07 50.647,1096.14 50.613,1096.22C50.575,1096.3 50.526,1096.41 50.504,1096.47C50.426,1096.65 50.361,1096.8 50.32,1096.9C50.212,1097.14 50.181,1097.22 50.181,1097.24C50.181,1097.25 50.143,1097.34 50.1,1097.43C50.056,1097.53 50.01,1097.64 49.994,1097.67C49.957,1097.77 49.854,1098 49.78,1098.16C49.745,1098.24 49.714,1098.32 49.714,1098.32C49.714,1098.33 49.407,1099.06 49.03,1099.95C48.654,1100.83 48.356,1101.57 48.368,1101.58C48.384,1101.59 48.443,1101.63 48.502,1101.66C48.887,1101.87 49.584,1102.26 49.668,1102.31C49.702,1102.33 49.773,1102.37 49.823,1102.4C49.876,1102.42 50.016,1102.5 50.134,1102.57C50.255,1102.64 50.373,1102.7 50.398,1102.72C50.423,1102.73 50.588,1102.82 50.762,1102.92C50.936,1103.02 51.085,1103.1 51.091,1103.1C51.101,1103.1 51.266,1103.19 51.458,1103.3C51.654,1103.42 51.841,1103.52 51.875,1103.54C51.909,1103.55 52.036,1103.62 52.155,1103.69C52.276,1103.76 52.416,1103.84 52.465,1103.86C52.518,1103.89 52.58,1103.92 52.605,1103.94C52.649,1103.97 53.361,1104.37 53.373,1104.37C53.373,1104.37 53.407,1104.31 53.442,1104.23C53.51,1104.09 53.569,1103.95 53.703,1103.66C53.743,1103.57 53.805,1103.42 53.839,1103.35C53.877,1103.27 53.942,1103.12 53.989,1103.01C54.035,1102.89 54.085,1102.79 54.101,1102.78C54.116,1102.76 54.129,1102.73 54.129,1102.7C54.129,1102.68 54.191,1102.53 54.268,1102.37C54.346,1102.2 54.408,1102.06 54.408,1102.05C54.408,1102.04 54.483,1101.88 54.66,1101.49C54.71,1101.38 54.75,1101.29 54.75,1101.28C54.75,1101.27 54.8,1101.16 54.859,1101.03C54.918,1100.9 54.968,1100.79 54.968,1100.79C54.968,1100.78 55.008,1100.68 55.058,1100.57C55.108,1100.46 55.182,1100.29 55.226,1100.19C55.269,1100.09 55.353,1099.9 55.412,1099.77C55.471,1099.64 55.555,1099.45 55.602,1099.35C55.646,1099.24 55.717,1099.08 55.757,1098.99C55.879,1098.72 55.879,1098.7 55.782,1098.66C55.695,1098.62 55.092,1098.23 54.887,1098.08C54.368,1097.69 53.522,1096.84 53.227,1096.41C53.187,1096.36 53.143,1096.3 53.131,1096.29C53.062,1096.24 52.658,1095.59 52.447,1095.18C52.027,1094.38 51.769,1093.56 51.595,1092.5C51.53,1092.08 51.53,1090.8 51.598,1090.39C51.663,1089.97 51.735,1089.62 51.782,1089.45C51.853,1089.21 52.018,1088.69 52.046,1088.63C52.058,1088.59 52.102,1088.49 52.139,1088.39C52.518,1087.44 53.134,1086.54 53.948,1085.72C54.523,1085.15 55.204,1084.61 55.689,1084.36L55.832,1084.28L55.773,1084.12C55.708,1083.95 55.705,1083.94 55.577,1083.66C55.534,1083.57 55.496,1083.48 55.496,1083.46C55.496,1083.45 55.468,1083.38 55.431,1083.3C55.397,1083.22 55.356,1083.13 55.341,1083.09C55.325,1083.06 55.285,1082.96 55.248,1082.88C55.21,1082.79 55.167,1082.69 55.151,1082.65C55.136,1082.61 55.111,1082.55 55.092,1082.51C55.077,1082.47 54.825,1081.88 54.533,1081.18C54.24,1080.49 53.989,1079.89 53.973,1079.86C53.954,1079.82 53.93,1079.75 53.914,1079.71C53.899,1079.67 53.864,1079.59 53.836,1079.53C53.808,1079.46 53.768,1079.36 53.743,1079.31C53.721,1079.26 53.675,1079.15 53.641,1079.07C53.606,1078.99 53.538,1078.83 53.488,1078.7C53.438,1078.58 53.386,1078.48 53.367,1078.48C53.351,1078.48 53.044,1078.62 52.683,1078.8C51.707,1079.28 50.383,1079.94 49.232,1080.5C47.998,1081.1 47.806,1081.19 47.79,1081.2C47.778,1081.21 47.914,1081.55 48.07,1081.89C48.12,1082 48.16,1082.11 48.16,1082.13C48.16,1082.15 48.172,1082.18 48.188,1082.19C48.2,1082.2 48.264,1082.34 48.328,1082.51L48.334,1082.53C48.398,1082.69 48.462,1082.84 48.474,1082.85C48.489,1082.86 48.502,1082.89 48.502,1082.91C48.502,1082.93 48.542,1083.04 48.592,1083.15C48.642,1083.26 48.825,1083.68 48.999,1084.1C49.391,1085.05 49.382,1085.02 49.463,1085.2C49.496,1085.28 49.527,1085.35 49.528,1085.36L49.528,1085.36ZM66.088,1078.49C66.088,1078.49 66.088,1078.49 66.087,1078.49C66.072,1078.49 65.994,1078.62 65.913,1078.77C65.686,1079.21 65.472,1079.6 65.413,1079.71C65.382,1079.76 65.282,1079.94 65.189,1080.12C65.096,1080.31 64.981,1080.52 64.931,1080.61C64.819,1080.81 64.673,1081.08 64.511,1081.38C64.372,1081.64 64.154,1082.05 64.008,1082.32C63.964,1082.4 63.893,1082.54 63.855,1082.61C63.815,1082.69 63.691,1082.93 63.573,1083.14C63.458,1083.35 63.361,1083.53 63.361,1083.54C63.361,1083.55 63.321,1083.62 63.271,1083.7C63.119,1083.95 63.119,1083.95 63.339,1084.06C63.445,1084.1 63.56,1084.15 63.591,1084.17C64.011,1084.4 64.135,1084.46 64.207,1084.51C64.25,1084.55 64.294,1084.57 64.303,1084.57C64.312,1084.57 64.387,1084.62 64.468,1084.67C65.108,1085.1 65.662,1085.6 66.125,1086.16C66.7,1086.85 67.008,1087.34 67.384,1088.18C67.552,1088.56 67.76,1089.2 67.838,1089.59C67.856,1089.69 67.887,1089.84 67.903,1089.91C68.015,1090.41 68.08,1091.49 68.027,1091.97C67.965,1092.56 67.934,1092.82 67.9,1092.96C67.769,1093.56 67.723,1093.74 67.62,1094.05C67.555,1094.25 67.486,1094.45 67.465,1094.5C67.443,1094.56 67.415,1094.62 67.399,1094.66C67.294,1094.93 66.995,1095.52 66.824,1095.8C66.607,1096.17 66.178,1096.77 65.96,1097.01C65.338,1097.7 64.462,1098.43 63.927,1098.71C63.874,1098.74 63.862,1098.77 63.874,1098.82C63.89,1098.87 64.07,1099.32 64.284,1099.83C64.309,1099.89 64.344,1099.97 64.356,1100.01C64.372,1100.04 64.409,1100.13 64.443,1100.21C64.477,1100.28 64.562,1100.49 64.632,1100.66L64.639,1100.68C64.71,1100.86 64.795,1101.06 64.828,1101.14C64.863,1101.22 64.9,1101.31 64.916,1101.34C64.928,1101.38 64.962,1101.45 64.987,1101.51C65.012,1101.57 65.111,1101.82 65.211,1102.06C65.307,1102.3 65.4,1102.52 65.416,1102.55C65.531,1102.82 65.892,1103.69 65.972,1103.9C66.025,1104.04 66.081,1104.15 66.091,1104.15C66.103,1104.15 66.168,1104.12 66.237,1104.08C66.305,1104.03 66.38,1103.99 66.405,1103.98C66.442,1103.96 67.231,1103.5 67.371,1103.41C67.396,1103.39 67.592,1103.28 67.807,1103.15C68.021,1103.03 68.217,1102.91 68.245,1102.9C68.273,1102.88 68.4,1102.81 68.525,1102.73C68.652,1102.66 68.776,1102.59 68.801,1102.57C68.826,1102.55 69.087,1102.4 69.376,1102.23C69.669,1102.05 69.927,1101.9 69.952,1101.89C69.976,1101.87 70.138,1101.78 70.306,1101.68C70.474,1101.58 70.679,1101.46 70.757,1101.41C70.834,1101.37 70.953,1101.3 71.015,1101.26C71.077,1101.23 71.136,1101.19 71.148,1101.17C71.164,1101.15 71.008,1100.83 70.62,1100.1C70.564,1100 70.408,1099.7 70.275,1099.45C70.141,1099.19 69.98,1098.88 69.917,1098.76C69.852,1098.64 69.706,1098.36 69.594,1098.14C69.479,1097.92 69.373,1097.72 69.361,1097.7C69.348,1097.69 69.233,1097.47 69.106,1097.22C68.77,1096.58 68.63,1096.32 68.543,1096.17C68.472,1096.06 68.4,1095.91 68.267,1095.61C68.086,1095.2 68.03,1094.65 68.145,1094.43C68.254,1094.22 68.462,1094.08 68.674,1094.08C68.789,1094.08 68.808,1094.1 68.901,1094.23C69.212,1094.69 69.883,1095.2 70.433,1095.4C71.472,1095.79 72.504,1095.75 73.43,1095.28C74.049,1094.97 74.531,1094.54 74.897,1093.96C75.137,1093.59 75.258,1093.3 75.376,1092.82C75.479,1092.4 75.488,1091.66 75.392,1091.24C75.295,1090.79 75.264,1090.68 75.233,1090.65C75.218,1090.63 75.205,1090.6 75.205,1090.58C75.205,1090.51 74.941,1089.99 74.798,1089.76C74.263,1088.94 73.554,1088.42 72.64,1088.17C72.311,1088.08 71.493,1088.07 71.133,1088.15C70.685,1088.26 70.555,1088.3 70.2,1088.46C69.92,1088.59 69.687,1088.74 69.42,1088.95C69.237,1089.1 69.212,1089.11 69.097,1089.09C68.795,1089.05 68.553,1088.75 68.553,1088.43C68.553,1088.22 68.621,1088.03 68.895,1087.45C68.951,1087.33 69.034,1087.14 69.084,1087.04C69.268,1086.64 69.432,1086.29 69.532,1086.08C69.588,1085.96 69.666,1085.79 69.703,1085.7C69.74,1085.62 69.83,1085.43 69.905,1085.27C70.238,1084.57 70.293,1084.45 70.293,1084.43C70.293,1084.43 70.368,1084.26 70.461,1084.07C70.81,1083.33 70.915,1083.1 70.915,1083.09C70.915,1083.09 70.99,1082.93 71.083,1082.73C71.245,1082.39 71.313,1082.24 71.599,1081.62C71.68,1081.45 71.723,1081.33 71.705,1081.31C71.677,1081.28 69.634,1080.24 67.309,1079.08C66.658,1078.75 66.113,1078.49 66.088,1078.49L66.088,1078.49ZM60.672,1101.31C61.014,1101.29 61.378,1101.25 61.48,1101.24C61.583,1101.22 61.757,1101.19 61.869,1101.17C62.167,1101.12 62.584,1101.01 62.584,1100.98C62.584,1100.97 62.565,1100.91 62.541,1100.85C62.519,1100.8 62.475,1100.67 62.444,1100.57C62.413,1100.46 62.379,1100.34 62.366,1100.3C62.351,1100.26 62.317,1100.14 62.286,1100.05C62.227,1099.85 62.236,1099.85 61.95,1099.9C61.847,1099.91 61.543,1099.95 61.278,1099.98C60.607,1100.06 59.062,1100.06 58.512,1099.98C57.893,1099.9 57.7,1099.86 57.514,1099.82C57.287,1099.76 57.206,1099.76 57.206,1099.82C57.206,1099.85 57.172,1099.99 57.128,1100.14C56.995,1100.59 56.929,1100.81 56.911,1100.88C56.895,1100.94 56.914,1100.95 57.026,1100.99C57.228,1101.06 57.483,1101.13 57.688,1101.16C57.791,1101.18 57.965,1101.21 58.077,1101.24C58.335,1101.28 59.227,1101.35 59.693,1101.35C59.889,1101.35 60.33,1101.34 60.672,1101.31ZM86.82,1099.61L80.944,1099.61L80.957,1091.34L80.976,1083.07L83.591,1083.08C85.031,1083.09 86.336,1083.12 86.497,1083.13L86.788,1083.18L86.807,1091.4L86.82,1099.61ZM95.408,1099.61L89.209,1099.61L89.222,1091.4L89.241,1083.18L92.263,1083.16C94.614,1083.15 95.311,1083.17 95.402,1083.22C95.466,1083.27 95.873,1083.76 96.319,1084.31C96.758,1084.86 97.139,1085.33 97.171,1085.35C97.197,1085.37 97.332,1085.54 97.461,1085.71C97.707,1086.05 97.952,1086.35 98.572,1087.09C98.908,1087.49 99.257,1087.93 99.831,1088.67C100.09,1089 101.239,1090.4 101.375,1090.55C101.426,1090.61 101.446,1089.63 101.446,1086.9L101.446,1083.18L107.386,1083.18L107.406,1091.4L107.419,1099.61L101.316,1099.61L101.026,1099.25C100.864,1099.05 100.613,1098.72 100.458,1098.52C100.309,1098.32 100.115,1098.08 100.038,1097.99C99.96,1097.9 99.722,1097.6 99.508,1097.32C98.708,1096.28 98.307,1095.77 98.165,1095.6C98.088,1095.51 97.791,1095.13 97.507,1094.77C97.223,1094.4 96.861,1093.94 96.7,1093.73C96.538,1093.53 96.189,1093.08 95.925,1092.73L95.44,1092.1L95.421,1095.86L95.408,1099.61ZM115.522,1099.61L112.701,1099.61C111.022,1099.61 109.872,1099.59 109.872,1099.56C109.872,1099.52 109.911,1099.41 109.963,1099.31C110.014,1099.21 110.098,1099.02 110.156,1098.89C110.215,1098.76 110.299,1098.55 110.35,1098.44C110.395,1098.32 110.518,1098.03 110.608,1097.77C110.705,1097.53 110.822,1097.24 110.873,1097.13C110.918,1097.02 111.048,1096.7 111.164,1096.42C111.28,1096.13 111.416,1095.8 111.461,1095.69C111.693,1095.14 111.738,1095.03 111.9,1094.61C112.061,1094.19 112.126,1094.05 112.313,1093.61C112.352,1093.52 112.449,1093.29 112.526,1093.09C112.604,1092.9 112.72,1092.61 112.791,1092.45C112.862,1092.28 112.94,1092.1 112.972,1092.03C112.998,1091.95 113.101,1091.7 113.198,1091.44C113.366,1091.03 113.469,1090.77 113.618,1090.41C113.65,1090.34 113.74,1090.12 113.818,1089.93C113.895,1089.73 114.011,1089.44 114.082,1089.28C114.25,1088.9 114.283,1088.83 114.522,1088.22C114.631,1087.93 114.748,1087.63 114.786,1087.56C114.819,1087.47 114.87,1087.35 114.903,1087.27C114.941,1087.18 115.032,1086.96 115.109,1086.76C115.187,1086.57 115.303,1086.28 115.374,1086.12C115.445,1085.96 115.529,1085.76 115.568,1085.67C115.606,1085.58 115.671,1085.42 115.716,1085.31C115.761,1085.21 115.839,1085.01 115.878,1084.89C115.962,1084.66 116.084,1084.37 116.233,1084.02C116.284,1083.92 116.375,1083.68 116.452,1083.5L116.581,1083.18L119.352,1083.16L122.128,1083.15L122.264,1083.37C122.341,1083.5 122.399,1083.65 122.399,1083.7C122.399,1083.75 122.425,1083.85 122.458,1083.91C122.509,1084.01 122.561,1084.13 122.819,1084.83C123.013,1085.35 123.129,1085.64 123.213,1085.83C123.342,1086.13 123.672,1087.02 123.794,1087.4C123.852,1087.58 123.923,1087.75 123.956,1087.77C123.988,1087.79 124.014,1087.86 124.014,1087.93C124.014,1087.99 124.052,1088.13 124.104,1088.23C124.156,1088.33 124.24,1088.53 124.291,1088.67C124.517,1089.28 124.608,1089.52 124.698,1089.69C124.75,1089.79 124.789,1089.93 124.789,1089.99C124.789,1090.06 124.814,1090.13 124.847,1090.15C124.879,1090.17 124.924,1090.26 124.95,1090.36C124.989,1090.52 125.118,1090.88 125.402,1091.61C125.544,1091.97 126.08,1093.36 126.19,1093.64C126.241,1093.78 126.313,1093.95 126.345,1094.01C126.377,1094.07 126.403,1094.18 126.403,1094.24C126.403,1094.31 126.429,1094.38 126.455,1094.41C126.48,1094.45 126.571,1094.65 126.655,1094.87C126.732,1095.08 126.848,1095.37 126.9,1095.51C126.923,1095.58 126.953,1095.65 126.984,1095.74L127.01,1095.81C127.041,1095.89 127.071,1095.97 127.094,1096.03C127.152,1096.17 127.236,1096.38 127.281,1096.48C127.326,1096.59 127.384,1096.75 127.404,1096.86C127.43,1096.95 127.475,1097.05 127.507,1097.07C127.539,1097.09 127.565,1097.16 127.565,1097.23C127.565,1097.3 127.591,1097.4 127.623,1097.47C127.656,1097.53 127.727,1097.7 127.778,1097.84C127.836,1097.98 127.985,1098.37 128.114,1098.7C128.243,1099.03 128.334,1099.35 128.314,1099.39C128.282,1099.47 127.791,1099.48 125.389,1099.47L122.496,1099.45L122.406,1099.19C122.361,1099.05 122.296,1098.85 122.27,1098.74C122.238,1098.64 122.109,1098.26 121.98,1097.9C121.851,1097.55 121.721,1097.17 121.689,1097.06C121.663,1096.96 121.573,1096.71 121.502,1096.51C121.424,1096.32 121.366,1096.15 121.366,1096.15C121.366,1096.13 120.327,1096.13 119.061,1096.14L116.756,1096.16L116.633,1096.48C116.569,1096.66 116.497,1096.86 116.478,1096.93C116.465,1097.01 116.42,1097.12 116.388,1097.19C116.317,1097.35 116.162,1097.81 116.033,1098.23C115.929,1098.55 115.865,1098.73 115.639,1099.3L115.522,1099.61ZM137.187,1092.96L137.174,1096.21L137.154,1099.45L133.971,1099.47C131.459,1099.48 130.781,1099.47 130.762,1099.41C130.742,1099.36 130.736,1095.69 130.742,1091.25L130.762,1083.18L137.154,1083.18L137.174,1085.62L137.187,1088.06L144.031,1088.06L144.044,1085.62L144.064,1083.18L150.456,1083.18L150.456,1099.45L144.322,1099.45L144.302,1096.21L144.29,1092.96L137.187,1092.96ZM54.837,1091.72L54.856,1091.84C54.868,1091.9 54.89,1092.04 54.909,1092.16C55.089,1093.23 55.583,1094.19 56.351,1094.97C56.948,1095.57 57.735,1096.04 58.481,1096.24C59.074,1096.4 59.062,1096.4 59.771,1096.4C60.52,1096.4 60.595,1096.39 61.247,1096.17C61.947,1095.95 62.553,1095.57 63.141,1095C63.796,1094.36 64.197,1093.75 64.49,1092.95C64.608,1092.63 64.76,1091.99 64.76,1091.82L64.76,1091.75L66.221,1091.75L66.221,1091.91C66.221,1092.1 66.143,1092.68 66.075,1093C65.938,1093.63 65.596,1094.51 65.32,1094.94C65.285,1094.99 65.236,1095.07 65.208,1095.12C65.077,1095.36 64.515,1096.04 64.26,1096.28C63.523,1096.96 62.637,1097.48 61.745,1097.75C61.365,1097.86 61.076,1097.92 60.766,1097.97C59.998,1098.07 59,1098.01 58.372,1097.85C58.235,1097.81 58.083,1097.77 58.03,1097.76C57.856,1097.71 57.191,1097.43 56.957,1097.31C56.522,1097.07 56.345,1096.96 55.9,1096.6C55.31,1096.13 54.909,1095.67 54.461,1094.94C54.29,1094.65 54.004,1094.09 54.004,1094.02C54.004,1094.01 53.992,1093.96 53.973,1093.93C53.93,1093.86 53.768,1093.33 53.712,1093.07C53.628,1092.7 53.569,1092.24 53.569,1091.98L53.569,1091.72L54.837,1091.72ZM62.621,1091.72L62.6,1091.87C62.578,1092.03 62.485,1092.36 62.435,1092.46C62.419,1092.49 62.373,1092.58 62.335,1092.65C62.164,1092.99 61.807,1093.38 61.487,1093.6C61.266,1093.75 60.943,1093.89 60.675,1093.96C60.346,1094.05 59.699,1094.04 59.379,1093.95C58.869,1093.79 58.434,1093.51 58.098,1093.1C57.958,1092.94 57.812,1092.68 57.638,1092.31C57.623,1092.28 57.592,1092.16 57.564,1092.04C57.536,1091.93 57.508,1091.81 57.498,1091.78C57.483,1091.72 57.62,1091.72 60.051,1091.72L62.621,1091.72ZM120.32,1092.14C120.256,1091.9 120.178,1091.64 120.159,1091.57C120.139,1091.5 119.907,1090.73 119.649,1089.85C119.384,1088.97 119.171,1088.2 119.171,1088.14C119.171,1087.93 119.1,1088.07 118.693,1089.22C118.609,1089.45 118.306,1090.28 118.015,1091.07C117.731,1091.85 117.492,1092.52 117.492,1092.54C117.492,1092.56 118.157,1092.58 118.971,1092.58L120.443,1092.58L120.32,1092.14ZM65.382,1089.48C65.382,1089.47 65.363,1089.42 65.341,1089.36C65.037,1088.55 64.409,1087.57 63.803,1086.98C62.739,1085.93 61.334,1085.37 59.82,1085.37C59.429,1085.38 58.776,1085.44 58.534,1085.51C58.462,1085.53 58.319,1085.56 58.216,1085.59C57.66,1085.73 57.057,1085.99 56.491,1086.34C56.006,1086.63 55.372,1087.18 55.027,1087.62C54.949,1087.71 54.865,1087.82 54.837,1087.85C54.567,1088.17 53.942,1089.29 53.942,1089.45C53.942,1089.47 56.214,1089.48 59.662,1089.48C62.808,1089.48 65.382,1089.48 65.382,1089.48ZM61.819,1082.81C61.934,1082.54 62.037,1082.31 62.152,1082.06C62.202,1081.95 62.242,1081.86 62.242,1081.85C62.242,1081.83 62.388,1081.5 62.447,1081.39C62.488,1081.32 62.481,1081.29 62.351,1081.04C62.273,1080.89 62.077,1080.48 61.913,1080.14C61.748,1079.8 61.471,1079.23 61.294,1078.87C61.12,1078.51 60.877,1078.01 60.759,1077.76C59.808,1075.8 59.693,1075.58 59.693,1075.71C59.693,1075.73 59.653,1075.81 59.606,1075.89C59.556,1075.97 59.451,1076.16 59.367,1076.32C59.286,1076.47 59.193,1076.64 59.161,1076.69C59.133,1076.74 59.043,1076.9 58.969,1077.05C58.891,1077.19 58.792,1077.37 58.748,1077.45C58.704,1077.53 58.655,1077.62 58.639,1077.65C58.624,1077.69 58.571,1077.79 58.518,1077.88C58.465,1077.97 58.366,1078.15 58.294,1078.28C58.226,1078.42 58.154,1078.55 58.139,1078.57C58.077,1078.67 57.672,1079.42 57.672,1079.43C57.672,1079.44 57.626,1079.53 57.567,1079.62C57.473,1079.78 57.408,1079.9 57.104,1080.47C57.054,1080.56 56.957,1080.73 56.895,1080.85C56.83,1080.96 56.768,1081.08 56.755,1081.12C56.74,1081.17 56.92,1081.65 57.159,1082.19C57.181,1082.25 57.265,1082.44 57.346,1082.63L57.492,1082.99L58.68,1083C59.329,1083 60.284,1083 60.797,1083.01L61.732,1083.02L61.819,1082.81Z" style="fill:rgb(50,168,212);"/>
        </g>
        <g transform="matrix(0.398343,0,0,0.398343,0,420.331)">
            <path d="M0,0L0,27.367L194.648,27.367L194.648,0L0,0ZM222.226,0L222.226,27.367L499.609,27.367C499.609,27.367 471.276,0 433.75,0L222.226,0ZM554.023,0L554.023,27.367L721.835,27.367L711.875,0L554.023,0ZM842.148,0L832.187,27.367L998.476,27.367L998.476,0L842.148,0ZM0,53.222L0,80.589L194.648,80.589L194.648,53.222L0,53.222ZM222.226,53.261L222.226,80.59L531.796,80.59C531.796,80.59 528.181,59.527 521.874,53.261L222.226,53.261ZM554.023,53.261L554.023,80.59L740.234,80.59L731.015,53.261L554.023,53.261ZM822.226,53.261L813.007,80.59L998.476,80.59L998.476,53.261L822.226,53.261L822.226,53.261ZM55.937,106.444L55.937,133.85L140.234,133.85L140.234,106.444L55.937,106.444L55.937,106.444ZM278.164,106.444L278.164,133.85L362.461,133.85L362.461,106.444L278.164,106.444L278.164,106.444ZM444.453,106.444L444.453,133.85L528.75,133.85C528.75,133.85 534.102,119.377 534.102,106.444L444.453,106.444L444.453,106.444ZM609.961,106.444L609.961,133.85L759.414,133.85L749.453,106.444L609.961,106.444L609.961,106.444ZM803.867,106.444L793.867,133.85L944.062,133.85L944.062,106.444L803.867,106.444L803.867,106.444ZM55.937,159.706L55.937,187.073L140.234,187.073L140.234,159.706L55.937,159.706L55.937,159.706ZM278.164,159.706L278.164,187.073L493.476,187.073C493.476,187.073 511.488,173.031 517.226,159.706L278.164,159.706ZM609.961,159.706L609.961,187.073L694.258,187.073L694.258,171.839L699.61,187.073L854.024,187.073L859.766,171.839L859.766,187.073L944.063,187.073L944.063,159.706L785.82,159.706L777.422,182.886L768.984,159.706L609.961,159.706ZM55.937,212.928L55.937,240.295L140.234,240.295L140.234,212.928L55.937,212.928ZM278.164,212.928L278.164,240.295L517.226,240.295C511.487,227.014 493.476,212.928 493.476,212.928L278.164,212.928ZM609.961,212.928L609.961,240.295L694.258,240.295L694.258,212.928L609.961,212.928ZM709.57,212.928L719.765,240.295L835.546,240.295L845.234,212.928L709.57,212.928ZM859.765,212.928L859.765,240.295L944.062,240.295L944.062,212.928L859.765,212.928ZM55.937,266.15L55.937,293.516L140.234,293.516L140.234,266.15L55.937,266.15ZM278.164,266.15L278.164,293.516L362.461,293.516L362.461,266.15L278.164,266.15ZM444.453,266.15L444.453,293.516L534.101,293.516C534.101,280.601 528.749,266.15 528.749,266.15L444.453,266.15L444.453,266.15ZM609.961,266.15L609.961,293.516L694.258,293.516L694.258,266.15L609.961,266.15ZM728.711,266.15L738.594,293.516L816.211,293.516L826.172,266.15L728.711,266.15ZM859.765,266.15L859.765,293.516L944.062,293.516L944.062,266.15L859.765,266.15ZM1.523,319.372L1.523,346.778L196.171,346.778L196.171,319.372L1.523,319.372ZM222.226,319.372L222.226,346.778L521.874,346.778C528.181,340.503 531.796,319.372 531.796,319.372L222.226,319.372L222.226,319.372ZM555.547,319.372L555.547,346.778L694.258,346.778L694.258,319.372L555.547,319.372ZM747.89,319.372L758.046,346.778L797.538,346.778L807.069,319.372L747.89,319.372ZM859.765,319.372L859.765,346.778L1000,346.778L1000,319.372L859.765,319.372ZM1.523,372.633L1.523,400L196.171,400L196.171,372.633L1.523,372.633ZM222.226,372.633L222.226,399.961L433.75,399.961C471.276,399.961 499.609,372.633 499.609,372.633L222.226,372.633ZM555.547,372.633L555.547,400L694.258,400L694.258,372.633L555.547,372.633ZM767.148,372.633L776.914,399.923L778.594,399.961L788.516,372.633L767.148,372.633L767.148,372.633ZM859.765,372.633L859.765,400L1000,400L1000,372.633L859.765,372.633Z" style="fill:rgb(50,168,212);fill-rule:nonzero;"/>
        </g>
    </g>
</svg>
